<?xml version="1.0" encoding="utf-8"?>
<svg xmlns="http://www.w3.org/2000/svg"
	xmlns:xlink="http://www.w3.org/1999/xlink"
	width="1400px" height="294px" viewBox="0 0 1400 294">
<clipPath id="clip0"><rect x="0" y="0" width="1400" height="294"/></clipPath><g><rect x="0" y="0" width="1400" height="294" fill="rgb(39,39,39)"/><path fillRule="evenodd" d="M 143.47 110.35C 158.51 104.51 168.6 107.07 178.88 111.27 185.21 108.3 192.35 101.53 196.42 97.14 197.71 95.66 199.01 94.17 200.3 92.69 200.29 101.47 198.64 108.95 194.38 115.73 193.43 117.24 192.63 119.1 191.21 120.36 191.22 120.39 191.23 120.42 191.24 120.45 199.69 117.24 205.28 110.84 211.16 106.32 211.17 106.35 211.18 106.38 211.2 106.41 209.75 113.25 207.1 120.63 203.54 126.52 202.11 128.89 200.67 131.25 199.23 133.62 202.65 142.58 205.56 151.25 206.66 159.43 213.06 206.96 198.17 246.3 161.92 274.14 148.91 284.14 125.84 294.76 107.46 296.77 98.34 297.77 89.93 298.2 81.71 297.7 77.14 297.42 72.81 296.9 68.55 296.05 67.14 295.78 65.74 295.5 64.34 295.22 68.18 293.94 73.01 293.35 77.01 291.1 80.62 289.07 84.45 287.85 87.71 285.76 95.84 280.57 102.74 275.11 108.05 268.66 110.62 265.54 114.77 261.45 116.08 257.82 111.72 259.51 107.36 259.95 103.68 260 89.39 260.18 79 254.67 69.67 244.08 73.66 243.09 85.06 240.03 86.84 236.9 81.92 238.4 76.25 237.31 72.17 236.45 59.66 233.82 47.43 226.18 41.44 209.7 43.01 209.85 44.58 209.99 46.15 210.14 49.1 210.27 51.91 209.9 55.19 209.4 56.57 209.2 59.43 209.01 60.7 207.92 60.64 207.94 60.58 207.96 60.51 207.99 57.7 206.42 53.93 206.07 51.05 204.33 41.54 198.61 30.82 188.35 29.22 172.04 28.81 167.9 29.14 164 29.66 160.31 29.74 160.32 29.81 160.33 29.89 160.34 31.23 161.65 33.36 162.19 34.92 163.13 39.78 166.04 45.26 168.25 50.65 169.99 69.04 175.93 84.42 178.07 106.94 175.56 112.65 174.93 119.07 173.69 125.32 171.4 121.68 166.92 119.2 158.42 118.76 152.95 117.65 139.2 121.9 127.42 131.21 118.53 133.44 116.4 136.07 114.48 138.91 112.67 140.43 111.9 141.95 111.12 143.47 110.35Z" fill="rgb(255,255,255)" opacity="0.10" clip-path="url(#clip0)"/></g></svg>