<?xml version="1.0" encoding="utf-8"?>
<svg xmlns="http://www.w3.org/2000/svg"
	xmlns:xlink="http://www.w3.org/1999/xlink"
	width="39px" height="31px" viewBox="0 0 39 31">
<path fillRule="evenodd" d="M 26.53 0C 29.63-0.05 31.28 1.05 32.85 2.46 34.19 2.35 35.93 1.62 36.95 1.11 37.28 0.93 37.61 0.75 37.95 0.57 37.36 2.12 36.57 3.33 35.35 4.25 35.08 4.46 34.81 4.73 34.47 4.86 34.47 4.87 34.47 4.87 34.47 4.88 36.21 4.86 37.64 4.1 39 3.68 39 3.68 39 3.69 39 3.7 38.29 4.81 37.32 5.94 36.29 6.75 35.87 7.07 35.45 7.4 35.04 7.72 35.06 9.52 35.01 11.24 34.67 12.75 32.67 21.55 27.37 27.52 18.99 30.08 15.98 31 11.12 31.38 7.67 30.54 5.96 30.12 4.42 29.65 2.97 29.03 2.16 28.69 1.42 28.31 0.7 27.89 0.47 27.75 0.23 27.61-0 27.47 0.78 27.49 1.69 27.7 2.56 27.56 3.34 27.44 4.12 27.47 4.84 27.32 6.65 26.93 8.26 26.41 9.64 25.62 10.31 25.23 11.33 24.78 11.81 24.23 10.91 24.24 10.1 24.04 9.43 23.81 6.84 22.91 5.33 21.27 4.35 18.79 5.14 18.88 7.4 19.08 7.92 18.64 6.94 18.59 5.99 18.03 5.31 17.61 3.23 16.34 1.53 14.2 1.54 10.9 1.82 11.03 2.09 11.16 2.36 11.28 2.88 11.5 3.42 11.62 4.04 11.74 4.3 11.8 4.83 11.95 5.13 11.84 5.12 11.84 5.11 11.84 5.09 11.84 4.69 11.38 4.04 11.07 3.63 10.58 2.29 8.95 1.04 6.45 1.83 3.47 2.04 2.71 2.35 2.05 2.69 1.43 2.71 1.44 2.72 1.44 2.73 1.45 2.89 1.77 3.24 2 3.45 2.27 4.14 3.1 4.98 3.84 5.84 4.5 8.76 6.74 11.39 8.11 15.62 9.13 16.69 9.39 17.93 9.59 19.21 9.59 18.85 8.56 18.96 6.9 19.25 5.91 19.96 3.41 21.51 1.61 23.77 0.65 24.32 0.42 24.92 0.25 25.55 0.11 25.88 0.08 26.2 0.04 26.53 0Z" fill="rgb(255,0,53)"/></svg>